G04 #@! TF.GenerationSoftware,KiCad,Pcbnew,10.0.1*
G04 #@! TF.CreationDate,2026-06-29T23:14:24+01:00*
G04 #@! TF.ProjectId,hexpansion,68657870-616e-4736-996f-6e2e6b696361,rev?*
G04 #@! TF.SameCoordinates,Original*
G04 #@! TF.FileFunction,Profile,NP*
%FSLAX46Y46*%
G04 Gerber Fmt 4.6, Leading zero omitted, Abs format (unit mm)*
G04 Created by KiCad (PCBNEW 10.0.1) date 2026-06-29 23:14:24*
%MOMM*%
%LPD*%
G01*
G04 APERTURE LIST*
G04 #@! TA.AperFunction,Profile*
%ADD10C,0.050000*%
G04 #@! TD*
G04 #@! TA.AperFunction,Profile*
%ADD11C,0.100000*%
G04 #@! TD*
G04 APERTURE END LIST*
D10*
X100000000Y-91339750D02*
G75*
G02*
X100499971Y-90473676I1000200J-50D01*
G01*
X100000000Y-93750000D02*
X100000000Y-91339750D01*
X100000000Y-106250000D02*
X100000000Y-108660243D01*
D11*
X100000000Y-106250000D02*
G75*
G02*
X100250000Y-106000000I250000J0D01*
G01*
X100250000Y-94000000D02*
G75*
G02*
X100000000Y-93750000I0J250000D01*
G01*
D10*
X100500000Y-90473725D02*
X129650000Y-75183969D01*
X100500000Y-109526269D02*
G75*
G02*
X99999999Y-108660243I499900J865969D01*
G01*
X129650000Y-75183969D02*
G75*
G02*
X130650000Y-75183969I500000J-866022D01*
G01*
X129650000Y-124816025D02*
X100500000Y-109526269D01*
X130650000Y-75183969D02*
X146482224Y-84324707D01*
X130650000Y-124816025D02*
G75*
G02*
X129650000Y-124816025I-500000J866022D01*
G01*
X130650000Y-124816025D02*
X146468843Y-115681157D01*
X146482224Y-84324707D02*
G75*
G02*
X147071188Y-85344835I-588924J-1020093D01*
G01*
X147057814Y-114661029D02*
G75*
G02*
X146468873Y-115681209I-1178114J29D01*
G01*
X147071187Y-85350000D02*
X147057814Y-114661537D01*
X98250000Y-104400000D02*
X98250000Y-95600000D01*
X104500000Y-94000000D02*
X100250000Y-94000000D01*
X104500000Y-95400000D02*
X98450000Y-95400000D01*
X104500000Y-104600000D02*
X98450000Y-104600000D01*
X104500000Y-106000000D02*
X100250000Y-106000000D01*
X98250000Y-95600000D02*
G75*
G02*
X98450000Y-95400000I200000J0D01*
G01*
X98450000Y-104600000D02*
G75*
G02*
X98250000Y-104400000I0J200000D01*
G01*
X104500000Y-94000000D02*
G75*
G02*
X105200000Y-94700000I0J-700000D01*
G01*
X104500000Y-104600000D02*
G75*
G02*
X105200000Y-105300000I0J-700000D01*
G01*
X105200000Y-94700000D02*
G75*
G02*
X104500000Y-95400000I-700000J0D01*
G01*
X105200000Y-105300000D02*
G75*
G02*
X104500000Y-106000000I-700000J0D01*
G01*
M02*
