G04 #@! TF.GenerationSoftware,KiCad,Pcbnew,10.0.1*
G04 #@! TF.CreationDate,2026-06-13T16:48:47+01:00*
G04 #@! TF.ProjectId,hexpansion,68657870-616e-4736-996f-6e2e6b696361,rev?*
G04 #@! TF.SameCoordinates,Original*
G04 #@! TF.FileFunction,Copper,L2,Bot*
G04 #@! TF.FilePolarity,Positive*
%FSLAX46Y46*%
G04 Gerber Fmt 4.6, Leading zero omitted, Abs format (unit mm)*
G04 Created by KiCad (PCBNEW 10.0.1) date 2026-06-13 16:48:47*
%MOMM*%
%LPD*%
G01*
G04 APERTURE LIST*
G04 Aperture macros list*
%AMRoundRect*
0 Rectangle with rounded corners*
0 $1 Rounding radius*
0 $2 $3 $4 $5 $6 $7 $8 $9 X,Y pos of 4 corners*
0 Add a 4 corners polygon primitive as box body*
4,1,4,$2,$3,$4,$5,$6,$7,$8,$9,$2,$3,0*
0 Add four circle primitives for the rounded corners*
1,1,$1+$1,$2,$3*
1,1,$1+$1,$4,$5*
1,1,$1+$1,$6,$7*
1,1,$1+$1,$8,$9*
0 Add four rect primitives between the rounded corners*
20,1,$1+$1,$2,$3,$4,$5,0*
20,1,$1+$1,$4,$5,$6,$7,0*
20,1,$1+$1,$6,$7,$8,$9,0*
20,1,$1+$1,$8,$9,$2,$3,0*%
%AMRotRect*
0 Rectangle, with rotation*
0 The origin of the aperture is its center*
0 $1 length*
0 $2 width*
0 $3 Rotation angle, in degrees counterclockwise*
0 Add horizontal line*
21,1,$1,$2,0,0,$3*%
G04 Aperture macros list end*
G04 #@! TA.AperFunction,Conductor*
%ADD10C,0.250000*%
G04 #@! TD*
G04 #@! TA.AperFunction,Conductor*
%ADD11C,0.200000*%
G04 #@! TD*
G04 #@! TA.AperFunction,ComponentPad*
%ADD12C,1.638000*%
G04 #@! TD*
G04 #@! TA.AperFunction,SMDPad,CuDef*
%ADD13RoundRect,0.150000X-1.600000X-0.150000X1.600000X-0.150000X1.600000X0.150000X-1.600000X0.150000X0*%
G04 #@! TD*
G04 #@! TA.AperFunction,SMDPad,CuDef*
%ADD14RoundRect,0.150000X-1.200000X-0.150000X1.200000X-0.150000X1.200000X0.150000X-1.200000X0.150000X0*%
G04 #@! TD*
G04 #@! TA.AperFunction,ComponentPad*
%ADD15C,1.803400*%
G04 #@! TD*
G04 #@! TA.AperFunction,ComponentPad*
%ADD16C,0.700000*%
G04 #@! TD*
G04 #@! TA.AperFunction,ComponentPad*
%ADD17C,4.400000*%
G04 #@! TD*
G04 #@! TA.AperFunction,ComponentPad*
%ADD18R,1.700000X1.700000*%
G04 #@! TD*
G04 #@! TA.AperFunction,ComponentPad*
%ADD19C,1.700000*%
G04 #@! TD*
G04 #@! TA.AperFunction,ComponentPad*
%ADD20RotRect,1.700000X1.700000X297.677000*%
G04 #@! TD*
G04 #@! TA.AperFunction,ViaPad*
%ADD21C,0.800000*%
G04 #@! TD*
G04 APERTURE END LIST*
D10*
X118625017Y-82614679D02*
X118861719Y-81924023D01*
X118872275Y-81918486D02*
X123327725Y-79581514D01*
D11*
X119090048Y-83664784D02*
X118609952Y-82635215D01*
D10*
X123327725Y-79581514D02*
X125857497Y-78240417D01*
X126750000Y-77768852D02*
X125868631Y-78231148D01*
X133750000Y-82000000D02*
X126750000Y-77768852D01*
D12*
X138171060Y-115447500D03*
X133750000Y-118000000D03*
D13*
X100500000Y-103400000D03*
D14*
X100900000Y-102600000D03*
X100900000Y-101800000D03*
X100900000Y-101000000D03*
X100900000Y-100200000D03*
X100900000Y-99400000D03*
X100900000Y-98600000D03*
X100900000Y-97800000D03*
D13*
X100500000Y-97000000D03*
X100500000Y-96200000D03*
D15*
X141750000Y-109540000D03*
X141750000Y-107000000D03*
D16*
X110850000Y-87500000D03*
X111333274Y-86333274D03*
X111333274Y-88666726D03*
X112500000Y-85850000D03*
D17*
X112500000Y-87500000D03*
D16*
X112500000Y-89150000D03*
X113666726Y-86333274D03*
X113666726Y-88666726D03*
X114150000Y-87500000D03*
D18*
X133225000Y-103250000D03*
D19*
X135765000Y-103250000D03*
D20*
X123619577Y-81320830D03*
D19*
X124799373Y-83570204D03*
X121370203Y-82500626D03*
X122550000Y-84750000D03*
X119120830Y-83680422D03*
X120300626Y-85929796D03*
D16*
X110850000Y-112500000D03*
X111333274Y-111333274D03*
X111333274Y-113666726D03*
X112500000Y-110850000D03*
D17*
X112500000Y-112500000D03*
D16*
X112500000Y-114150000D03*
X113666726Y-111333274D03*
X113666726Y-113666726D03*
X114150000Y-112500000D03*
D15*
X141750000Y-95460000D03*
X141750000Y-98000000D03*
X141750000Y-100540000D03*
X141750000Y-103080000D03*
D12*
X138210530Y-84526250D03*
X133789470Y-81973750D03*
D21*
X112350000Y-95450000D03*
X114600000Y-96300000D03*
X119000000Y-113000000D03*
X111000000Y-93750000D03*
X143500000Y-105750000D03*
X140400000Y-113950000D03*
X124500000Y-90350000D03*
X134050000Y-86350000D03*
X122350000Y-109150000D03*
X122000000Y-97752604D03*
X144900000Y-105750000D03*
X124000000Y-97752604D03*
X127200000Y-119200000D03*
X124500000Y-86850000D03*
X144900000Y-96500000D03*
X144900000Y-107500000D03*
X117850000Y-93450000D03*
X124500000Y-88600000D03*
X130100000Y-112550000D03*
X143500000Y-96500000D03*
X130700000Y-102700000D03*
X129150000Y-115050000D03*
X138154642Y-90350000D03*
X140400000Y-115950000D03*
X106250000Y-105500000D03*
X130700000Y-105250000D03*
X119100000Y-102550000D03*
X128800000Y-90350000D03*
X122350000Y-114550000D03*
X130700000Y-101360017D03*
X119000000Y-109150000D03*
X106250000Y-94250000D03*
X130700000Y-104000000D03*
X116000000Y-113000000D03*
X123000000Y-97752604D03*
X116000000Y-109150000D03*
X143500000Y-107500000D03*
X128800000Y-88700000D03*
X119000000Y-107300000D03*
X117850000Y-91400000D03*
X137000000Y-97225000D03*
X116000000Y-107300000D03*
X116000000Y-110850000D03*
X144900000Y-102500000D03*
X144900000Y-95000000D03*
X117850000Y-89250000D03*
X134050000Y-84070365D03*
X119000000Y-110850000D03*
X143500000Y-104000000D03*
X143500000Y-102500000D03*
X144900000Y-104000000D03*
X138154642Y-87200000D03*
X143500000Y-95000000D03*
X128039902Y-93595371D03*
X128400000Y-113600000D03*
X122005000Y-101345000D03*
X122750000Y-91000000D03*
X129100000Y-82250000D03*
X118751537Y-100994530D03*
X119750000Y-101050000D03*
X119750000Y-88700000D03*
X119750000Y-94750000D03*
X131250000Y-107050000D03*
X132500000Y-111500000D03*
X127475000Y-111850000D03*
X131550000Y-109350000D03*
X128000000Y-96050000D03*
X128000000Y-94785000D03*
X138250000Y-92500000D03*
X120325000Y-113875000D03*
X120750000Y-93500000D03*
X111000000Y-106000000D03*
X111000000Y-104600000D03*
D10*
X111100000Y-95450000D02*
X112350000Y-95450000D01*
X107750000Y-98800000D02*
X111100000Y-95450000D01*
X107750000Y-98800000D02*
X107150000Y-99400000D01*
X108250000Y-103400000D02*
X100500000Y-103400000D01*
X108400000Y-103400000D02*
X111000000Y-106000000D01*
X108550000Y-96200000D02*
X111000000Y-93750000D01*
X107750000Y-96200000D02*
X100500000Y-96200000D01*
X107150000Y-99400000D02*
X100900000Y-99400000D01*
X108250000Y-103400000D02*
X108400000Y-103400000D01*
X107750000Y-96200000D02*
X108550000Y-96200000D01*
X108100000Y-98450000D02*
X107750000Y-98800000D01*
X127404629Y-93595371D02*
X128039902Y-93595371D01*
X128400000Y-113600000D02*
X128325000Y-113675000D01*
X128325000Y-113675000D02*
X127425000Y-113675000D01*
X127425000Y-113675000D02*
X126750000Y-113000000D01*
X126750000Y-113000000D02*
X126750000Y-94250000D01*
X126750000Y-94250000D02*
X127404629Y-93595371D01*
X121200000Y-94075305D02*
X121200000Y-100540000D01*
X121200000Y-100540000D02*
X122005000Y-101345000D01*
X129100000Y-82250000D02*
X129100000Y-83800000D01*
X122750000Y-91000000D02*
X121475000Y-92275000D01*
X123202322Y-90547678D02*
X122750000Y-91000000D01*
X121475000Y-92275000D02*
X121475000Y-93800305D01*
X100900000Y-101000000D02*
X118757007Y-101000000D01*
X121475000Y-93800305D02*
X121200000Y-94075305D01*
X129100000Y-83800000D02*
X128150000Y-84750000D01*
X122550000Y-84750000D02*
X123202322Y-85402322D01*
X118757007Y-101000000D02*
X118751537Y-100994530D01*
X123202322Y-85402322D02*
X123202322Y-90547678D01*
X128150000Y-84750000D02*
X122550000Y-84750000D01*
X121475626Y-88224374D02*
X121475626Y-85337327D01*
X118982312Y-100200000D02*
X119750000Y-100967688D01*
X119750000Y-88700000D02*
X121000000Y-88700000D01*
X121370203Y-85231904D02*
X121370203Y-82500626D01*
X100900000Y-100200000D02*
X118982312Y-100200000D01*
X121475626Y-85337327D02*
X121370203Y-85231904D01*
X119750000Y-100967688D02*
X119750000Y-101050000D01*
X119750000Y-94750000D02*
X119750000Y-101050000D01*
X121000000Y-88700000D02*
X121475626Y-88224374D01*
X132500000Y-111500000D02*
X132500000Y-108300000D01*
X132500000Y-108300000D02*
X131250000Y-107050000D01*
X129900000Y-111850000D02*
X131550000Y-110200000D01*
X127475000Y-111850000D02*
X129900000Y-111850000D01*
X131550000Y-109350000D02*
X131550000Y-110200000D01*
X133950000Y-96050000D02*
X136000000Y-94000000D01*
X136000000Y-83894810D02*
X134078940Y-81973750D01*
X128000000Y-96050000D02*
X133950000Y-96050000D01*
X136000000Y-94000000D02*
X136000000Y-83894810D01*
X134078940Y-81973750D02*
X133789470Y-81973750D01*
X127699695Y-96775000D02*
X127200000Y-96275305D01*
X128575305Y-96500000D02*
X128300305Y-96775000D01*
X137175000Y-96500000D02*
X128575305Y-96500000D01*
X128300305Y-96775000D02*
X127699695Y-96775000D01*
X138250000Y-92500000D02*
X138250000Y-95425000D01*
X127200000Y-95585000D02*
X128000000Y-94785000D01*
X138250000Y-95425000D02*
X137175000Y-96500000D01*
X127200000Y-96275305D02*
X127200000Y-95585000D01*
X120325000Y-113875000D02*
X120750000Y-113450000D01*
X120750000Y-113450000D02*
X120750000Y-93500000D01*
G04 #@! TA.AperFunction,Conductor*
G36*
X130312759Y-75064733D02*
G01*
X130334033Y-75068484D01*
X130462234Y-75102836D01*
X130468372Y-75104653D01*
X130495338Y-75113415D01*
X130509397Y-75118954D01*
X130644845Y-75182114D01*
X130654431Y-75187105D01*
X146477949Y-84322815D01*
X146485796Y-84327745D01*
X146611937Y-84413744D01*
X146621780Y-84421200D01*
X146643334Y-84439285D01*
X146647936Y-84443347D01*
X146749571Y-84537649D01*
X146762172Y-84551230D01*
X146860311Y-84674290D01*
X146870746Y-84689596D01*
X146949447Y-84825909D01*
X146957488Y-84842606D01*
X147014993Y-84989129D01*
X147020455Y-85006839D01*
X147051280Y-85141895D01*
X147052506Y-85147959D01*
X147057409Y-85175771D01*
X147058945Y-85188034D01*
X147070339Y-85340096D01*
X147070686Y-85349418D01*
X147057338Y-114609199D01*
X147057338Y-114609205D01*
X147057314Y-114656446D01*
X147057311Y-114656455D01*
X147056967Y-114665657D01*
X147045631Y-114816810D01*
X147044087Y-114829110D01*
X147038605Y-114860138D01*
X147037386Y-114866162D01*
X147007146Y-114998626D01*
X147002765Y-115013473D01*
X147001922Y-115015787D01*
X147000841Y-115018646D01*
X146944088Y-115163245D01*
X146936047Y-115179941D01*
X146857352Y-115316246D01*
X146846913Y-115331558D01*
X146749941Y-115453160D01*
X146747975Y-115455562D01*
X146746534Y-115457279D01*
X146735897Y-115468460D01*
X146635685Y-115561450D01*
X146631044Y-115565546D01*
X146607755Y-115585087D01*
X146597909Y-115592546D01*
X146472431Y-115678106D01*
X146464582Y-115683038D01*
X130654438Y-124812884D01*
X130644834Y-124817884D01*
X130509408Y-124881034D01*
X130495321Y-124886583D01*
X130468425Y-124895322D01*
X130462201Y-124897166D01*
X130334039Y-124931507D01*
X130312753Y-124935260D01*
X130160808Y-124948554D01*
X130139192Y-124948554D01*
X129987246Y-124935260D01*
X129965961Y-124931507D01*
X129837803Y-124897168D01*
X129831575Y-124895323D01*
X129804675Y-124886582D01*
X129790591Y-124881034D01*
X129655188Y-124817894D01*
X129645526Y-124812860D01*
X129621876Y-124799186D01*
X129607166Y-124792993D01*
X116658372Y-118001092D01*
X116458305Y-117896153D01*
X132430500Y-117896153D01*
X132430500Y-118103847D01*
X132462991Y-118308984D01*
X132527172Y-118506512D01*
X132621463Y-118691569D01*
X132743542Y-118859596D01*
X132890404Y-119006458D01*
X133058431Y-119128537D01*
X133243488Y-119222828D01*
X133441016Y-119287009D01*
X133646153Y-119319500D01*
X133646154Y-119319500D01*
X133853846Y-119319500D01*
X133853847Y-119319500D01*
X134058984Y-119287009D01*
X134256512Y-119222828D01*
X134441569Y-119128537D01*
X134609596Y-119006458D01*
X134756458Y-118859596D01*
X134878537Y-118691569D01*
X134972828Y-118506512D01*
X135037009Y-118308984D01*
X135069500Y-118103847D01*
X135069500Y-117896153D01*
X135037009Y-117691016D01*
X134972828Y-117493488D01*
X134878537Y-117308431D01*
X134756458Y-117140404D01*
X134609596Y-116993542D01*
X134472301Y-116893791D01*
X134472299Y-116893789D01*
X134441572Y-116871465D01*
X134441571Y-116871464D01*
X134441569Y-116871463D01*
X134256512Y-116777172D01*
X134058984Y-116712991D01*
X134058982Y-116712990D01*
X134058980Y-116712990D01*
X133915751Y-116690304D01*
X133853847Y-116680500D01*
X133646153Y-116680500D01*
X133598599Y-116688031D01*
X133441019Y-116712990D01*
X133243485Y-116777173D01*
X133058430Y-116871463D01*
X133027699Y-116893791D01*
X132890404Y-116993542D01*
X132890402Y-116993544D01*
X132890401Y-116993544D01*
X132743544Y-117140401D01*
X132743544Y-117140402D01*
X132743542Y-117140404D01*
X132691113Y-117212565D01*
X132621463Y-117308430D01*
X132527173Y-117493485D01*
X132462990Y-117691019D01*
X132430500Y-117896153D01*
X116458305Y-117896153D01*
X111702339Y-115401554D01*
X111609567Y-115352893D01*
X136852060Y-115352893D01*
X136852060Y-115551313D01*
X136884538Y-115756368D01*
X136948692Y-115953817D01*
X137042950Y-116138807D01*
X137164985Y-116306772D01*
X137164985Y-116306773D01*
X137311786Y-116453574D01*
X137479754Y-116575611D01*
X137594322Y-116633985D01*
X137594323Y-116633985D01*
X137803757Y-115852357D01*
X137835808Y-115884408D01*
X137960312Y-115956291D01*
X138099178Y-115993500D01*
X138242942Y-115993500D01*
X138286721Y-115981769D01*
X138076453Y-116766499D01*
X138076453Y-116766500D01*
X138274873Y-116766500D01*
X138479928Y-116734021D01*
X138677377Y-116669867D01*
X138862367Y-116575609D01*
X139030332Y-116453574D01*
X139030333Y-116453574D01*
X139177134Y-116306773D01*
X139177134Y-116306772D01*
X139299166Y-116138811D01*
X139299171Y-116138803D01*
X139357545Y-116024236D01*
X139357545Y-116024235D01*
X138575919Y-115814800D01*
X138607968Y-115782752D01*
X138679851Y-115658248D01*
X138717060Y-115519382D01*
X138717060Y-115375618D01*
X138705328Y-115331836D01*
X139490059Y-115542105D01*
X139490060Y-115542105D01*
X139490060Y-115343686D01*
X139457581Y-115138631D01*
X139393427Y-114941182D01*
X139299169Y-114756192D01*
X139177134Y-114588227D01*
X139177134Y-114588226D01*
X139030333Y-114441425D01*
X138862367Y-114319390D01*
X138747796Y-114261013D01*
X138747795Y-114261013D01*
X138538360Y-115042640D01*
X138506312Y-115010592D01*
X138381808Y-114938709D01*
X138242942Y-114901500D01*
X138099178Y-114901500D01*
X138055396Y-114913231D01*
X138265667Y-114128500D01*
X138067247Y-114128500D01*
X137862191Y-114160978D01*
X137664742Y-114225132D01*
X137479752Y-114319390D01*
X137311787Y-114441425D01*
X137311786Y-114441425D01*
X137164985Y-114588226D01*
X137164985Y-114588227D01*
X137042950Y-114756192D01*
X136984573Y-114870762D01*
X137766201Y-115080198D01*
X137734152Y-115112248D01*
X137662269Y-115236752D01*
X137625060Y-115375618D01*
X137625060Y-115519382D01*
X137636790Y-115563161D01*
X137057785Y-115408017D01*
X136852060Y-115352893D01*
X111609567Y-115352893D01*
X100507270Y-109529517D01*
X100493750Y-109521285D01*
X100373401Y-109437025D01*
X100361559Y-109427606D01*
X100340485Y-109408632D01*
X100335834Y-109404219D01*
X100241990Y-109310381D01*
X100228103Y-109293830D01*
X100140616Y-109168886D01*
X100129813Y-109150178D01*
X100065345Y-109011923D01*
X100057957Y-108991623D01*
X100023621Y-108863462D01*
X100022114Y-108857186D01*
X100016221Y-108829459D01*
X100013989Y-108814516D01*
X100000971Y-108665628D01*
X100000500Y-108654828D01*
X100000500Y-106259760D01*
X100002026Y-106240365D01*
X100002194Y-106239303D01*
X100009639Y-106192291D01*
X100021624Y-106155405D01*
X100039237Y-106120838D01*
X100062033Y-106089463D01*
X100089463Y-106062033D01*
X100120838Y-106039237D01*
X100155405Y-106021624D01*
X100192291Y-106009639D01*
X100240365Y-106002026D01*
X100259760Y-106000500D01*
X104568995Y-106000500D01*
X104660041Y-105982389D01*
X104704328Y-105973580D01*
X104728376Y-105963618D01*
X104731927Y-105962809D01*
X104741726Y-105958089D01*
X104831811Y-105920775D01*
X104864332Y-105899044D01*
X104873601Y-105894582D01*
X104886979Y-105883913D01*
X104946543Y-105844114D01*
X104984570Y-105806086D01*
X104996541Y-105796541D01*
X105006084Y-105784572D01*
X105044114Y-105746543D01*
X105083913Y-105686979D01*
X105094582Y-105673601D01*
X105099044Y-105664332D01*
X105120775Y-105631811D01*
X105158089Y-105541726D01*
X105162809Y-105531927D01*
X105163618Y-105528376D01*
X105173580Y-105504328D01*
X105200500Y-105368993D01*
X105200500Y-105300000D01*
X105200500Y-105299500D01*
X105200500Y-105231007D01*
X105200500Y-105231004D01*
X105173581Y-105095678D01*
X105173580Y-105095674D01*
X105173580Y-105095672D01*
X105163619Y-105071624D01*
X105162809Y-105068073D01*
X105158084Y-105058263D01*
X105120775Y-104968189D01*
X105099046Y-104935669D01*
X105094582Y-104926399D01*
X105083913Y-104913022D01*
X105044114Y-104853457D01*
X105044112Y-104853454D01*
X105044110Y-104853452D01*
X105011017Y-104820360D01*
X105006089Y-104815432D01*
X104996541Y-104803459D01*
X104984567Y-104793910D01*
X104979639Y-104788982D01*
X104946546Y-104755888D01*
X104946543Y-104755885D01*
X104891323Y-104718989D01*
X104891323Y-104718988D01*
X104886971Y-104716080D01*
X104873601Y-104705418D01*
X104864333Y-104700954D01*
X104857094Y-104696118D01*
X104857091Y-104696116D01*
X104831811Y-104679225D01*
X104831807Y-104679223D01*
X104831805Y-104679222D01*
X104831806Y-104679222D01*
X104744957Y-104643249D01*
X104744952Y-104643247D01*
X104741733Y-104641913D01*
X104731927Y-104637191D01*
X104728380Y-104636381D01*
X104718736Y-104632386D01*
X104718727Y-104632384D01*
X104714873Y-104630788D01*
X104704328Y-104626420D01*
X104704324Y-104626419D01*
X104568995Y-104599500D01*
X104568993Y-104599500D01*
X104500207Y-104599500D01*
X104389801Y-104599500D01*
X104322762Y-104579815D01*
X104277007Y-104527011D01*
X104265804Y-104476362D01*
X104261729Y-103890205D01*
X104248246Y-101950499D01*
X104246855Y-101750362D01*
X104266073Y-101683187D01*
X104318558Y-101637066D01*
X104370852Y-101625500D01*
X118057646Y-101625500D01*
X118124685Y-101645185D01*
X118145328Y-101661820D01*
X118177498Y-101693991D01*
X118177502Y-101693994D01*
X118324983Y-101792539D01*
X118324996Y-101792546D01*
X118438283Y-101839470D01*
X118488871Y-101860424D01*
X118488873Y-101860424D01*
X118488878Y-101860426D01*
X118662841Y-101895029D01*
X118662844Y-101895030D01*
X118662846Y-101895030D01*
X118840230Y-101895030D01*
X118840231Y-101895029D01*
X118898219Y-101883494D01*
X119014195Y-101860426D01*
X119014198Y-101860424D01*
X119014203Y-101860424D01*
X119155342Y-101801963D01*
X119224811Y-101794494D01*
X119271683Y-101813421D01*
X119323453Y-101848013D01*
X119323456Y-101848014D01*
X119323457Y-101848015D01*
X119375499Y-101869571D01*
X119487334Y-101915894D01*
X119487336Y-101915894D01*
X119487341Y-101915896D01*
X119661304Y-101950499D01*
X119661307Y-101950500D01*
X119661309Y-101950500D01*
X119838693Y-101950500D01*
X119953243Y-101927714D01*
X119976308Y-101923126D01*
X120045900Y-101929353D01*
X120101077Y-101972216D01*
X120124322Y-102038105D01*
X120124500Y-102044743D01*
X120124500Y-112900501D01*
X120104815Y-112967540D01*
X120052011Y-113013295D01*
X120047953Y-113015062D01*
X119898455Y-113076985D01*
X119898446Y-113076990D01*
X119750965Y-113175535D01*
X119750961Y-113175538D01*
X119625538Y-113300961D01*
X119625535Y-113300965D01*
X119526990Y-113448446D01*
X119526983Y-113448459D01*
X119459107Y-113612331D01*
X119459103Y-113612341D01*
X119424500Y-113786304D01*
X119424500Y-113963695D01*
X119459103Y-114137658D01*
X119459106Y-114137667D01*
X119526983Y-114301540D01*
X119526990Y-114301553D01*
X119625535Y-114449034D01*
X119625538Y-114449038D01*
X119750961Y-114574461D01*
X119750965Y-114574464D01*
X119898446Y-114673009D01*
X119898459Y-114673016D01*
X120021363Y-114723923D01*
X120062334Y-114740894D01*
X120062336Y-114740894D01*
X120062341Y-114740896D01*
X120236304Y-114775499D01*
X120236307Y-114775500D01*
X120236309Y-114775500D01*
X120413693Y-114775500D01*
X120413694Y-114775499D01*
X120462480Y-114765795D01*
X120564261Y-114745550D01*
X120564266Y-114745549D01*
X120576372Y-114743140D01*
X120587666Y-114740894D01*
X120751547Y-114673013D01*
X120899035Y-114574464D01*
X121024464Y-114449035D01*
X121123013Y-114301547D01*
X121190894Y-114137666D01*
X121192718Y-114128500D01*
X121225499Y-113963695D01*
X121225500Y-113963693D01*
X121225500Y-113901850D01*
X121230827Y-113883706D01*
X121231165Y-113864797D01*
X121244665Y-113836579D01*
X121245185Y-113834811D01*
X121246398Y-113832959D01*
X121304311Y-113746286D01*
X121304315Y-113746279D01*
X121304315Y-113746277D01*
X121351461Y-113632455D01*
X121351463Y-113632451D01*
X121355465Y-113612334D01*
X121375500Y-113511606D01*
X121375500Y-102239392D01*
X121395185Y-102172353D01*
X121447989Y-102126598D01*
X121517147Y-102116654D01*
X121568392Y-102136290D01*
X121578453Y-102143013D01*
X121578455Y-102143013D01*
X121578459Y-102143016D01*
X121701363Y-102193923D01*
X121742334Y-102210894D01*
X121742336Y-102210894D01*
X121742341Y-102210896D01*
X121916304Y-102245499D01*
X121916307Y-102245500D01*
X121916309Y-102245500D01*
X122093693Y-102245500D01*
X122093694Y-102245499D01*
X122151682Y-102233964D01*
X122267658Y-102210896D01*
X122267661Y-102210894D01*
X122267666Y-102210894D01*
X122431547Y-102143013D01*
X122579035Y-102044464D01*
X122704464Y-101919035D01*
X122803013Y-101771547D01*
X122870894Y-101607666D01*
X122905500Y-101433691D01*
X122905500Y-101256309D01*
X122905500Y-101256306D01*
X122905499Y-101256304D01*
X122870896Y-101082341D01*
X122870893Y-101082332D01*
X122803016Y-100918459D01*
X122803009Y-100918446D01*
X122704464Y-100770965D01*
X122704461Y-100770961D01*
X122579038Y-100645538D01*
X122579034Y-100645535D01*
X122431553Y-100546990D01*
X122431540Y-100546983D01*
X122267667Y-100479106D01*
X122267658Y-100479103D01*
X122093694Y-100444500D01*
X122093691Y-100444500D01*
X122040452Y-100444500D01*
X122011011Y-100435855D01*
X121981025Y-100429332D01*
X121976009Y-100425577D01*
X121973413Y-100424815D01*
X121952771Y-100408181D01*
X121861819Y-100317229D01*
X121828334Y-100255906D01*
X121825500Y-100229548D01*
X121825500Y-94385758D01*
X121845185Y-94318719D01*
X121861819Y-94298077D01*
X121960859Y-94199037D01*
X121960859Y-94199036D01*
X122029312Y-94096590D01*
X122069113Y-94000501D01*
X122076463Y-93982757D01*
X122100500Y-93861911D01*
X122100500Y-92585452D01*
X122120185Y-92518413D01*
X122136819Y-92497771D01*
X122697771Y-91936819D01*
X122759094Y-91903334D01*
X122785452Y-91900500D01*
X122838693Y-91900500D01*
X122838694Y-91900499D01*
X122896682Y-91888964D01*
X123012658Y-91865896D01*
X123012661Y-91865894D01*
X123012666Y-91865894D01*
X123176547Y-91798013D01*
X123324035Y-91699464D01*
X123449464Y-91574035D01*
X123548013Y-91426547D01*
X123615894Y-91262666D01*
X123650500Y-91088691D01*
X123650500Y-91035453D01*
X123670185Y-90968414D01*
X123672688Y-90964669D01*
X123678997Y-90955593D01*
X123688180Y-90946411D01*
X123756633Y-90843964D01*
X123756634Y-90843963D01*
X123803785Y-90730129D01*
X123827822Y-90609285D01*
X123827822Y-90486071D01*
X123827822Y-85499500D01*
X123847507Y-85432461D01*
X123900311Y-85386706D01*
X123951822Y-85375500D01*
X128211607Y-85375500D01*
X128272029Y-85363481D01*
X128332452Y-85351463D01*
X128365792Y-85337652D01*
X128446286Y-85304312D01*
X128497509Y-85270084D01*
X128548733Y-85235858D01*
X128635858Y-85148733D01*
X128635859Y-85148731D01*
X128642925Y-85141665D01*
X128642928Y-85141661D01*
X129498729Y-84285860D01*
X129498733Y-84285858D01*
X129585858Y-84198733D01*
X129654311Y-84096286D01*
X129654312Y-84096285D01*
X129681932Y-84029603D01*
X129701463Y-83982452D01*
X129725500Y-83861606D01*
X129725500Y-82949361D01*
X129745185Y-82882322D01*
X129761820Y-82861679D01*
X129799461Y-82824038D01*
X129799464Y-82824035D01*
X129898013Y-82676547D01*
X129965894Y-82512666D01*
X129974349Y-82470163D01*
X129989431Y-82394339D01*
X130000500Y-82338691D01*
X130000500Y-82161309D01*
X130000500Y-82161306D01*
X130000499Y-82161304D01*
X129965896Y-81987341D01*
X129965893Y-81987332D01*
X129898016Y-81823459D01*
X129898009Y-81823446D01*
X129799464Y-81675965D01*
X129799461Y-81675961D01*
X129674038Y-81550538D01*
X129674034Y-81550535D01*
X129526553Y-81451990D01*
X129526540Y-81451983D01*
X129362667Y-81384106D01*
X129362658Y-81384103D01*
X129188694Y-81349500D01*
X129188691Y-81349500D01*
X129011309Y-81349500D01*
X129011306Y-81349500D01*
X128837341Y-81384103D01*
X128837332Y-81384106D01*
X128673459Y-81451983D01*
X128673446Y-81451990D01*
X128525965Y-81550535D01*
X128525961Y-81550538D01*
X128400538Y-81675961D01*
X128400535Y-81675965D01*
X128301990Y-81823446D01*
X128301983Y-81823459D01*
X128234106Y-81987332D01*
X128234103Y-81987341D01*
X128199500Y-82161304D01*
X128199500Y-82338695D01*
X128234103Y-82512658D01*
X128234106Y-82512667D01*
X128301983Y-82676540D01*
X128301990Y-82676553D01*
X128400535Y-82824034D01*
X128400538Y-82824038D01*
X128438180Y-82861679D01*
X128471666Y-82923001D01*
X128474500Y-82949361D01*
X128474500Y-83489548D01*
X128454815Y-83556587D01*
X128438181Y-83577229D01*
X127927229Y-84088181D01*
X127865906Y-84121666D01*
X127839548Y-84124500D01*
X126209942Y-84124500D01*
X126142903Y-84104815D01*
X126097148Y-84052011D01*
X126087204Y-83982853D01*
X126092011Y-83962182D01*
X126116619Y-83886447D01*
X126149873Y-83676491D01*
X126149873Y-83463917D01*
X126116619Y-83253961D01*
X126050930Y-83051792D01*
X125954424Y-82862388D01*
X125954422Y-82862385D01*
X125954421Y-82862383D01*
X125829482Y-82690417D01*
X125679159Y-82540094D01*
X125507193Y-82415155D01*
X125317787Y-82318648D01*
X125317786Y-82318647D01*
X125317785Y-82318647D01*
X125148826Y-82263748D01*
X125091151Y-82224311D01*
X125063953Y-82159953D01*
X125075868Y-82091106D01*
X125094803Y-82063060D01*
X125187875Y-81959217D01*
X125249845Y-81829320D01*
X125272710Y-81687226D01*
X125256134Y-81556428D01*
X125254615Y-81544444D01*
X125232604Y-81488680D01*
X124794945Y-80654250D01*
X124398503Y-79898404D01*
X124387705Y-79882282D01*
X124366753Y-79815628D01*
X124385164Y-79748227D01*
X124432651Y-79703721D01*
X126204899Y-78764208D01*
X126204903Y-78764205D01*
X126205945Y-78763356D01*
X126226691Y-78749660D01*
X126666331Y-78519060D01*
X126734840Y-78505353D01*
X126788069Y-78522751D01*
X132023362Y-81687222D01*
X132410114Y-81920994D01*
X132457305Y-81972519D01*
X132469970Y-82027114D01*
X132469970Y-82077597D01*
X132473480Y-82099756D01*
X132493207Y-82224311D01*
X132502461Y-82282734D01*
X132566642Y-82480262D01*
X132660933Y-82665319D01*
X132783012Y-82833346D01*
X132929874Y-82980208D01*
X133097901Y-83102287D01*
X133282958Y-83196578D01*
X133480486Y-83260759D01*
X133685623Y-83293250D01*
X133685624Y-83293250D01*
X133893316Y-83293250D01*
X133893317Y-83293250D01*
X134098454Y-83260759D01*
X134295982Y-83196578D01*
X134295990Y-83196573D01*
X134300486Y-83194712D01*
X134300878Y-83195658D01*
X134364644Y-83183671D01*
X134429389Y-83209935D01*
X134439973Y-83219373D01*
X135338181Y-84117581D01*
X135371666Y-84178904D01*
X135374500Y-84205262D01*
X135374500Y-93689548D01*
X135354815Y-93756587D01*
X135338181Y-93777229D01*
X133727229Y-95388181D01*
X133665906Y-95421666D01*
X133639548Y-95424500D01*
X128887711Y-95424500D01*
X128820672Y-95404815D01*
X128774917Y-95352011D01*
X128764973Y-95282853D01*
X128784608Y-95231610D01*
X128798010Y-95211551D01*
X128798013Y-95211547D01*
X128865894Y-95047666D01*
X128869048Y-95031813D01*
X128900499Y-94873695D01*
X128900500Y-94873693D01*
X128900500Y-94696306D01*
X128900499Y-94696304D01*
X128865896Y-94522341D01*
X128865893Y-94522332D01*
X128798016Y-94358459D01*
X128798014Y-94358455D01*
X128798013Y-94358453D01*
X128774622Y-94323446D01*
X128751562Y-94288934D01*
X128730684Y-94222257D01*
X128749168Y-94154877D01*
X128751545Y-94151177D01*
X128808929Y-94065297D01*
X128837910Y-94021926D01*
X128837911Y-94021923D01*
X128837915Y-94021918D01*
X128905796Y-93858037D01*
X128907495Y-93849500D01*
X128929228Y-93740239D01*
X128940402Y-93684062D01*
X128940402Y-93506680D01*
X128940402Y-93506677D01*
X128940401Y-93506675D01*
X128905798Y-93332712D01*
X128905795Y-93332703D01*
X128837918Y-93168830D01*
X128837911Y-93168817D01*
X128739366Y-93021336D01*
X128739363Y-93021332D01*
X128613940Y-92895909D01*
X128613936Y-92895906D01*
X128466455Y-92797361D01*
X128466442Y-92797354D01*
X128302569Y-92729477D01*
X128302560Y-92729474D01*
X128128596Y-92694871D01*
X128128593Y-92694871D01*
X127951211Y-92694871D01*
X127951208Y-92694871D01*
X127777243Y-92729474D01*
X127777234Y-92729477D01*
X127613361Y-92797354D01*
X127613348Y-92797361D01*
X127465867Y-92895906D01*
X127465863Y-92895909D01*
X127428223Y-92933551D01*
X127366901Y-92967037D01*
X127361956Y-92968008D01*
X127351331Y-92969871D01*
X127343022Y-92969871D01*
X127282600Y-92981889D01*
X127243846Y-92989597D01*
X127222175Y-92993908D01*
X127108345Y-93041058D01*
X127108336Y-93041063D01*
X127005897Y-93109511D01*
X126983087Y-93132322D01*
X126918771Y-93196638D01*
X126354111Y-93761297D01*
X126354103Y-93761305D01*
X126351270Y-93764139D01*
X126351267Y-93764142D01*
X126264142Y-93851267D01*
X126233816Y-93896653D01*
X126229280Y-93903440D01*
X126229275Y-93903447D01*
X126195690Y-93953710D01*
X126195685Y-93953719D01*
X126170842Y-94013698D01*
X126170842Y-94013699D01*
X126148537Y-94067545D01*
X126145815Y-94081228D01*
X126145816Y-94081229D01*
X126127447Y-94173580D01*
X126124500Y-94188394D01*
X126124500Y-113061606D01*
X126148537Y-113182452D01*
X126156394Y-113201420D01*
X126195688Y-113296286D01*
X126218808Y-113330886D01*
X126223424Y-113337794D01*
X126264141Y-113398732D01*
X126264144Y-113398736D01*
X126355586Y-113490178D01*
X126355608Y-113490198D01*
X126939139Y-114073729D01*
X126939142Y-114073733D01*
X127026267Y-114160858D01*
X127077490Y-114195084D01*
X127128714Y-114229312D01*
X127128715Y-114229312D01*
X127128716Y-114229313D01*
X127202390Y-114259829D01*
X127202394Y-114259830D01*
X127209207Y-114262652D01*
X127242548Y-114276463D01*
X127302971Y-114288481D01*
X127363393Y-114300500D01*
X127363394Y-114300500D01*
X127789900Y-114300500D01*
X127856939Y-114320185D01*
X127858788Y-114321396D01*
X127973453Y-114398013D01*
X128137334Y-114465894D01*
X128137336Y-114465894D01*
X128137341Y-114465896D01*
X128311304Y-114500499D01*
X128311307Y-114500500D01*
X128311309Y-114500500D01*
X128488693Y-114500500D01*
X128488694Y-114500499D01*
X128546682Y-114488964D01*
X128662658Y-114465896D01*
X128662661Y-114465894D01*
X128662666Y-114465894D01*
X128826547Y-114398013D01*
X128974035Y-114299464D01*
X129099464Y-114174035D01*
X129198013Y-114026547D01*
X129265894Y-113862666D01*
X129266606Y-113859091D01*
X129300499Y-113688695D01*
X129300500Y-113688693D01*
X129300500Y-113511306D01*
X129300499Y-113511304D01*
X129265896Y-113337341D01*
X129265893Y-113337332D01*
X129198016Y-113173459D01*
X129198009Y-113173446D01*
X129099464Y-113025965D01*
X129099461Y-113025961D01*
X128974038Y-112900538D01*
X128974034Y-112900535D01*
X128826553Y-112801990D01*
X128826540Y-112801983D01*
X128662667Y-112734106D01*
X128662658Y-112734103D01*
X128597369Y-112721117D01*
X128535458Y-112688732D01*
X128500884Y-112628016D01*
X128504623Y-112558247D01*
X128545490Y-112501575D01*
X128610508Y-112475994D01*
X128621560Y-112475500D01*
X129961607Y-112475500D01*
X130022029Y-112463481D01*
X130082452Y-112451463D01*
X130115792Y-112437652D01*
X130196286Y-112404312D01*
X130253781Y-112365894D01*
X130298733Y-112335858D01*
X130385858Y-112248733D01*
X130385858Y-112248731D01*
X130396066Y-112238524D01*
X130396067Y-112238521D01*
X131403871Y-111230718D01*
X131465193Y-111197234D01*
X131534885Y-111202218D01*
X131590818Y-111244090D01*
X131615235Y-111309554D01*
X131613168Y-111342591D01*
X131599500Y-111411304D01*
X131599500Y-111588695D01*
X131634103Y-111762658D01*
X131634106Y-111762667D01*
X131701983Y-111926540D01*
X131701990Y-111926553D01*
X131800535Y-112074034D01*
X131800538Y-112074038D01*
X131925961Y-112199461D01*
X131925965Y-112199464D01*
X132073446Y-112298009D01*
X132073459Y-112298016D01*
X132164817Y-112335857D01*
X132237334Y-112365894D01*
X132237336Y-112365894D01*
X132237341Y-112365896D01*
X132411304Y-112400499D01*
X132411307Y-112400500D01*
X132411309Y-112400500D01*
X132588693Y-112400500D01*
X132588694Y-112400499D01*
X132646682Y-112388964D01*
X132762658Y-112365896D01*
X132762661Y-112365894D01*
X132762666Y-112365894D01*
X132926547Y-112298013D01*
X133074035Y-112199464D01*
X133199464Y-112074035D01*
X133298013Y-111926547D01*
X133365894Y-111762666D01*
X133400500Y-111588691D01*
X133400500Y-111411309D01*
X133400500Y-111411306D01*
X133400499Y-111411304D01*
X133365896Y-111237341D01*
X133365893Y-111237332D01*
X133298016Y-111073459D01*
X133298009Y-111073446D01*
X133199464Y-110925965D01*
X133199461Y-110925961D01*
X133161819Y-110888319D01*
X133128334Y-110826996D01*
X133125500Y-110800638D01*
X133125500Y-108238396D01*
X133125500Y-108238394D01*
X133101463Y-108117548D01*
X133081932Y-108070397D01*
X133054312Y-108003715D01*
X132995631Y-107915894D01*
X132985858Y-107901267D01*
X132898733Y-107814142D01*
X132898732Y-107814141D01*
X132895621Y-107811030D01*
X132895606Y-107811016D01*
X132186819Y-107102229D01*
X132174925Y-107080447D01*
X132159523Y-107060984D01*
X132156885Y-107047409D01*
X132153334Y-107040906D01*
X132151098Y-107026711D01*
X132150500Y-107020644D01*
X132150500Y-106961309D01*
X132120616Y-106811073D01*
X132115896Y-106787341D01*
X132115893Y-106787332D01*
X132048016Y-106623459D01*
X132048009Y-106623446D01*
X131949464Y-106475965D01*
X131949461Y-106475961D01*
X131824038Y-106350538D01*
X131824034Y-106350535D01*
X131676553Y-106251990D01*
X131676540Y-106251983D01*
X131512667Y-106184106D01*
X131512658Y-106184103D01*
X131338694Y-106149500D01*
X131338691Y-106149500D01*
X131161309Y-106149500D01*
X131161306Y-106149500D01*
X130987341Y-106184103D01*
X130987332Y-106184106D01*
X130823459Y-106251983D01*
X130823446Y-106251990D01*
X130675965Y-106350535D01*
X130675961Y-106350538D01*
X130550538Y-106475961D01*
X130550535Y-106475965D01*
X130451990Y-106623446D01*
X130451983Y-106623459D01*
X130384106Y-106787332D01*
X130384103Y-106787341D01*
X130349500Y-106961304D01*
X130349500Y-107138695D01*
X130384103Y-107312658D01*
X130384106Y-107312667D01*
X130451983Y-107476540D01*
X130451990Y-107476553D01*
X130550535Y-107624034D01*
X130550538Y-107624038D01*
X130675961Y-107749461D01*
X130675965Y-107749464D01*
X130823446Y-107848009D01*
X130823459Y-107848016D01*
X130946363Y-107898923D01*
X130987334Y-107915894D01*
X130987336Y-107915894D01*
X130987341Y-107915896D01*
X131161304Y-107950499D01*
X131161307Y-107950500D01*
X131161309Y-107950500D01*
X131214548Y-107950500D01*
X131281587Y-107970185D01*
X131302229Y-107986819D01*
X131553229Y-108237819D01*
X131586714Y-108299142D01*
X131581730Y-108368834D01*
X131539858Y-108424767D01*
X131474394Y-108449184D01*
X131465548Y-108449500D01*
X131461306Y-108449500D01*
X131287341Y-108484103D01*
X131287332Y-108484106D01*
X131123459Y-108551983D01*
X131123446Y-108551990D01*
X130975965Y-108650535D01*
X130975961Y-108650538D01*
X130850538Y-108775961D01*
X130850535Y-108775965D01*
X130751990Y-108923446D01*
X130751983Y-108923459D01*
X130684106Y-109087332D01*
X130684103Y-109087341D01*
X130649500Y-109261304D01*
X130649500Y-109438695D01*
X130684103Y-109612658D01*
X130684106Y-109612667D01*
X130751983Y-109776540D01*
X130751990Y-109776552D01*
X130830383Y-109893874D01*
X130851261Y-109960551D01*
X130832777Y-110027931D01*
X130814962Y-110050446D01*
X129677229Y-111188181D01*
X129615906Y-111221666D01*
X129589548Y-111224500D01*
X128174361Y-111224500D01*
X128107322Y-111204815D01*
X128086679Y-111188180D01*
X128049038Y-111150538D01*
X128049034Y-111150535D01*
X127901553Y-111051990D01*
X127901540Y-111051983D01*
X127737667Y-110984106D01*
X127737658Y-110984103D01*
X127563694Y-110949500D01*
X127563691Y-110949500D01*
X127499500Y-110949500D01*
X127432461Y-110929815D01*
X127386706Y-110877011D01*
X127375500Y-110825500D01*
X127375500Y-102352135D01*
X131874500Y-102352135D01*
X131874500Y-104147870D01*
X131874501Y-104147876D01*
X131880908Y-104207483D01*
X131931202Y-104342328D01*
X131931206Y-104342335D01*
X132017452Y-104457544D01*
X132017455Y-104457547D01*
X132132664Y-104543793D01*
X132132671Y-104543797D01*
X132267517Y-104594091D01*
X132267516Y-104594091D01*
X132274444Y-104594835D01*
X132327127Y-104600500D01*
X134122872Y-104600499D01*
X134182483Y-104594091D01*
X134317331Y-104543796D01*
X134432546Y-104457546D01*
X134518796Y-104342331D01*
X134567810Y-104210916D01*
X134609681Y-104154984D01*
X134675145Y-104130566D01*
X134743418Y-104145417D01*
X134771673Y-104166569D01*
X134885213Y-104280109D01*
X135057179Y-104405048D01*
X135057181Y-104405049D01*
X135057184Y-104405051D01*
X135246588Y-104501557D01*
X135448757Y-104567246D01*
X135658713Y-104600500D01*
X135658714Y-104600500D01*
X135871286Y-104600500D01*
X135871287Y-104600500D01*
X136081243Y-104567246D01*
X136283412Y-104501557D01*
X136472816Y-104405051D01*
X136559138Y-104342335D01*
X136644786Y-104280109D01*
X136644788Y-104280106D01*
X136644792Y-104280104D01*
X136795104Y-104129792D01*
X136795111Y-104129783D01*
X136807928Y-104112142D01*
X136807930Y-104112139D01*
X136849911Y-104054355D01*
X136920051Y-103957816D01*
X137016557Y-103768412D01*
X137082246Y-103566243D01*
X137115500Y-103356287D01*
X137115500Y-103143713D01*
X137082246Y-102933757D01*
X137016557Y-102731588D01*
X136920051Y-102542184D01*
X136920049Y-102542181D01*
X136920048Y-102542179D01*
X136795109Y-102370213D01*
X136644786Y-102219890D01*
X136472820Y-102094951D01*
X136283414Y-101998444D01*
X136283413Y-101998443D01*
X136283412Y-101998443D01*
X136081243Y-101932754D01*
X136081241Y-101932753D01*
X136081240Y-101932753D01*
X135919957Y-101907208D01*
X135871287Y-101899500D01*
X135658713Y-101899500D01*
X135610042Y-101907208D01*
X135448760Y-101932753D01*
X135246585Y-101998444D01*
X135057179Y-102094951D01*
X134885215Y-102219889D01*
X134771673Y-102333431D01*
X134710350Y-102366915D01*
X134640658Y-102361931D01*
X134584725Y-102320059D01*
X134567810Y-102289082D01*
X134518797Y-102157671D01*
X134518793Y-102157664D01*
X134432547Y-102042455D01*
X134432544Y-102042452D01*
X134317335Y-101956206D01*
X134317328Y-101956202D01*
X134182482Y-101905908D01*
X134182483Y-101905908D01*
X134122883Y-101899501D01*
X134122881Y-101899500D01*
X134122873Y-101899500D01*
X134122864Y-101899500D01*
X132327129Y-101899500D01*
X132327123Y-101899501D01*
X132267516Y-101905908D01*
X132132671Y-101956202D01*
X132132664Y-101956206D01*
X132017455Y-102042452D01*
X132017452Y-102042455D01*
X131931206Y-102157664D01*
X131931202Y-102157671D01*
X131880908Y-102292517D01*
X131874501Y-102352116D01*
X131874500Y-102352135D01*
X127375500Y-102352135D01*
X127375500Y-97499363D01*
X127395185Y-97432324D01*
X127447989Y-97386569D01*
X127517147Y-97376625D01*
X127523691Y-97377746D01*
X127638083Y-97400499D01*
X127638087Y-97400500D01*
X127638088Y-97400500D01*
X128361912Y-97400500D01*
X128422334Y-97388481D01*
X128482757Y-97376463D01*
X128516097Y-97362652D01*
X128596591Y-97329312D01*
X128647814Y-97295084D01*
X128699038Y-97260858D01*
X128786163Y-97173733D01*
X128786163Y-97173731D01*
X128796371Y-97163524D01*
X128796374Y-97163527D01*
X128796396Y-97163498D01*
X128798101Y-97161792D01*
X128859434Y-97128326D01*
X128885756Y-97125500D01*
X137236607Y-97125500D01*
X137297029Y-97113481D01*
X137357452Y-97101463D01*
X137393508Y-97086528D01*
X137471286Y-97054312D01*
X137525671Y-97017972D01*
X137573733Y-96985858D01*
X137660858Y-96898733D01*
X137660858Y-96898731D01*
X137671066Y-96888524D01*
X137671067Y-96888521D01*
X138735858Y-95823733D01*
X138804312Y-95721285D01*
X138851463Y-95607451D01*
X138875501Y-95486606D01*
X138875501Y-95363393D01*
X138875501Y-95358283D01*
X138875500Y-95358257D01*
X138875500Y-94374059D01*
X139094917Y-94374059D01*
X139104989Y-97397793D01*
X140479879Y-97404138D01*
X140450529Y-97461741D01*
X140450528Y-97461744D01*
X140382327Y-97671649D01*
X140347800Y-97889644D01*
X140347800Y-98110355D01*
X140382327Y-98328350D01*
X140450528Y-98538255D01*
X140450529Y-98538258D01*
X140550731Y-98734913D01*
X140680462Y-98913472D01*
X140836528Y-99069538D01*
X140965242Y-99163055D01*
X140974364Y-99169682D01*
X141017029Y-99225012D01*
X141023008Y-99294626D01*
X140990402Y-99356421D01*
X140974363Y-99370318D01*
X140836528Y-99470462D01*
X140836526Y-99470464D01*
X140836525Y-99470464D01*
X140680464Y-99626525D01*
X140680464Y-99626526D01*
X140680462Y-99626528D01*
X140624747Y-99703212D01*
X140550731Y-99805086D01*
X140450529Y-100001741D01*
X140450528Y-100001744D01*
X140382327Y-100211649D01*
X140347800Y-100429644D01*
X140347800Y-100650355D01*
X140382327Y-100868350D01*
X140450528Y-101078255D01*
X140450529Y-101078258D01*
X140541249Y-101256304D01*
X140550731Y-101274913D01*
X140680462Y-101453472D01*
X140836528Y-101609538D01*
X140836531Y-101609540D01*
X140974788Y-101709990D01*
X141017454Y-101765320D01*
X141023433Y-101834933D01*
X140990827Y-101896728D01*
X140974788Y-101910627D01*
X140951268Y-101927714D01*
X140951268Y-101927715D01*
X140953218Y-101929665D01*
X140268016Y-101926212D01*
X140236717Y-108133966D01*
X140966106Y-108137443D01*
X140951268Y-108152282D01*
X140951268Y-108152283D01*
X140974788Y-108169371D01*
X141017454Y-108224701D01*
X141023433Y-108294314D01*
X140990828Y-108356110D01*
X140974789Y-108370007D01*
X140836534Y-108470457D01*
X140836525Y-108470464D01*
X140680464Y-108626525D01*
X140680464Y-108626526D01*
X140680462Y-108626528D01*
X140663018Y-108650538D01*
X140550731Y-108805086D01*
X140450529Y-109001741D01*
X140450528Y-109001744D01*
X140382327Y-109211649D01*
X140347800Y-109429644D01*
X140347800Y-109650355D01*
X140382327Y-109868350D01*
X140450528Y-110078255D01*
X140450529Y-110078258D01*
X140550731Y-110274913D01*
X140680462Y-110453472D01*
X140836528Y-110609538D01*
X141015087Y-110739269D01*
X141111540Y-110788414D01*
X141211741Y-110839470D01*
X141211744Y-110839471D01*
X141316696Y-110873571D01*
X141421651Y-110907673D01*
X141639644Y-110942200D01*
X141639645Y-110942200D01*
X141860355Y-110942200D01*
X141860356Y-110942200D01*
X142078349Y-110907673D01*
X142288258Y-110839470D01*
X142484913Y-110739269D01*
X142663472Y-110609538D01*
X142819538Y-110453472D01*
X142949269Y-110274913D01*
X143049470Y-110078258D01*
X143117673Y-109868349D01*
X143152200Y-109650356D01*
X143152200Y-109429644D01*
X143117673Y-109211651D01*
X143076423Y-109084695D01*
X143049471Y-109001744D01*
X143049470Y-109001741D01*
X142975815Y-108857186D01*
X142949269Y-108805087D01*
X142819538Y-108626528D01*
X142663472Y-108470462D01*
X142617575Y-108437116D01*
X142525210Y-108370008D01*
X142482545Y-108314677D01*
X142476566Y-108245064D01*
X142509172Y-108183269D01*
X142525211Y-108169372D01*
X142548730Y-108152283D01*
X142548731Y-108152283D01*
X142541401Y-108144953D01*
X147001082Y-108166214D01*
X147031186Y-101960301D01*
X142538787Y-101937657D01*
X142548730Y-101927715D01*
X142525211Y-101910628D01*
X142482545Y-101855298D01*
X142476566Y-101785685D01*
X142509171Y-101723889D01*
X142525206Y-101709993D01*
X142663472Y-101609538D01*
X142819538Y-101453472D01*
X142949269Y-101274913D01*
X143049470Y-101078258D01*
X143117673Y-100868349D01*
X143152200Y-100650356D01*
X143152200Y-100429644D01*
X143117673Y-100211651D01*
X143049470Y-100001742D01*
X143049470Y-100001741D01*
X142949268Y-99805086D01*
X142819538Y-99626528D01*
X142663472Y-99470462D01*
X142525636Y-99370318D01*
X142482970Y-99314988D01*
X142476991Y-99245375D01*
X142509597Y-99183580D01*
X142525636Y-99169682D01*
X142533945Y-99163645D01*
X142663472Y-99069538D01*
X142819538Y-98913472D01*
X142949269Y-98734913D01*
X143049470Y-98538258D01*
X143117673Y-98328349D01*
X143152200Y-98110356D01*
X143152200Y-97889644D01*
X143117673Y-97671651D01*
X143049470Y-97461742D01*
X143049470Y-97461741D01*
X143026107Y-97415889D01*
X145255895Y-97426180D01*
X145241533Y-94353587D01*
X142493705Y-94362738D01*
X142548730Y-94307715D01*
X142484647Y-94261157D01*
X142288063Y-94160992D01*
X142078235Y-94092815D01*
X141860315Y-94058300D01*
X141639685Y-94058300D01*
X141421766Y-94092815D01*
X141421763Y-94092815D01*
X141211936Y-94160992D01*
X141015342Y-94261162D01*
X140951268Y-94307714D01*
X140951268Y-94307715D01*
X141011229Y-94367676D01*
X139094917Y-94374059D01*
X138875500Y-94374059D01*
X138875500Y-93199361D01*
X138895185Y-93132322D01*
X138911820Y-93111679D01*
X138949461Y-93074038D01*
X138949464Y-93074035D01*
X139048013Y-92926547D01*
X139115894Y-92762666D01*
X139122497Y-92729474D01*
X139150499Y-92588695D01*
X139150500Y-92588693D01*
X139150500Y-92411306D01*
X139150499Y-92411304D01*
X139115896Y-92237341D01*
X139115893Y-92237332D01*
X139048016Y-92073459D01*
X139048009Y-92073446D01*
X138949463Y-91925963D01*
X138824038Y-91800538D01*
X138824034Y-91800535D01*
X138676553Y-91701990D01*
X138676540Y-91701983D01*
X138512667Y-91634106D01*
X138512658Y-91634103D01*
X138338694Y-91599500D01*
X138338691Y-91599500D01*
X138161309Y-91599500D01*
X138161306Y-91599500D01*
X137987341Y-91634103D01*
X137987332Y-91634106D01*
X137823459Y-91701983D01*
X137823446Y-91701990D01*
X137675965Y-91800535D01*
X137675961Y-91800538D01*
X137550538Y-91925961D01*
X137550537Y-91925963D01*
X137451990Y-92073446D01*
X137451983Y-92073459D01*
X137384106Y-92237332D01*
X137384103Y-92237341D01*
X137349500Y-92411304D01*
X137349500Y-92588695D01*
X137384103Y-92762658D01*
X137384106Y-92762667D01*
X137451983Y-92926540D01*
X137451990Y-92926553D01*
X137550535Y-93074034D01*
X137550538Y-93074038D01*
X137588180Y-93111679D01*
X137621666Y-93173001D01*
X137624500Y-93199361D01*
X137624500Y-95114547D01*
X137604815Y-95181586D01*
X137588181Y-95202228D01*
X136952229Y-95838181D01*
X136890906Y-95871666D01*
X136864548Y-95874500D01*
X135309452Y-95874500D01*
X135242413Y-95854815D01*
X135196658Y-95802011D01*
X135186714Y-95732853D01*
X135215739Y-95669297D01*
X135221771Y-95662819D01*
X135511011Y-95373579D01*
X136398729Y-94485860D01*
X136398733Y-94485858D01*
X136485858Y-94398733D01*
X136554311Y-94296286D01*
X136554312Y-94296285D01*
X136594593Y-94199038D01*
X136601463Y-94182452D01*
X136614086Y-94118989D01*
X136618541Y-94096594D01*
X136618541Y-94096589D01*
X136625500Y-94061607D01*
X136625500Y-93938393D01*
X136625500Y-84422436D01*
X136891530Y-84422436D01*
X136891530Y-84620855D01*
X137097255Y-84565732D01*
X137676261Y-84410586D01*
X137664530Y-84454368D01*
X137664530Y-84598132D01*
X137701739Y-84736998D01*
X137773622Y-84861502D01*
X137805670Y-84893550D01*
X137024043Y-85102985D01*
X137024043Y-85102986D01*
X137082420Y-85217557D01*
X137204455Y-85385522D01*
X137204455Y-85385523D01*
X137351256Y-85532324D01*
X137519222Y-85654359D01*
X137704212Y-85748617D01*
X137901661Y-85812771D01*
X138106717Y-85845250D01*
X138305137Y-85845250D01*
X138305136Y-85845249D01*
X138094866Y-85060518D01*
X138138648Y-85072250D01*
X138282412Y-85072250D01*
X138421278Y-85035041D01*
X138545782Y-84963158D01*
X138577830Y-84931109D01*
X138787265Y-85712735D01*
X138787266Y-85712735D01*
X138901833Y-85654361D01*
X138901841Y-85654356D01*
X139069802Y-85532324D01*
X139069803Y-85532324D01*
X139216604Y-85385523D01*
X139216604Y-85385522D01*
X139338639Y-85217557D01*
X139432897Y-85032567D01*
X139497051Y-84835118D01*
X139529530Y-84630063D01*
X139529530Y-84431643D01*
X139529529Y-84431643D01*
X138744799Y-84641911D01*
X138756530Y-84598132D01*
X138756530Y-84454368D01*
X138719321Y-84315502D01*
X138647438Y-84190998D01*
X138615387Y-84158947D01*
X139397015Y-83949513D01*
X139397015Y-83949512D01*
X139338641Y-83834944D01*
X139216604Y-83666977D01*
X139216604Y-83666976D01*
X139069803Y-83520175D01*
X138901837Y-83398140D01*
X138716847Y-83303882D01*
X138519398Y-83239728D01*
X138314343Y-83207250D01*
X138115923Y-83207250D01*
X138326191Y-83991980D01*
X138282412Y-83980250D01*
X138138648Y-83980250D01*
X137999782Y-84017459D01*
X137875278Y-84089342D01*
X137843228Y-84121391D01*
X137633792Y-83339763D01*
X137519222Y-83398140D01*
X137351257Y-83520175D01*
X137351256Y-83520175D01*
X137204455Y-83666976D01*
X137204455Y-83666977D01*
X137082420Y-83834942D01*
X136988162Y-84019932D01*
X136924008Y-84217381D01*
X136891530Y-84422436D01*
X136625500Y-84422436D01*
X136625500Y-83833204D01*
X136622450Y-83817872D01*
X136608851Y-83749500D01*
X136601463Y-83712358D01*
X136577985Y-83655677D01*
X136554312Y-83598524D01*
X136553401Y-83597161D01*
X136526999Y-83557649D01*
X136509012Y-83530730D01*
X136485858Y-83496077D01*
X136485856Y-83496074D01*
X136395637Y-83405855D01*
X136395606Y-83405826D01*
X135145289Y-82155509D01*
X135111804Y-82094186D01*
X135108970Y-82067828D01*
X135108970Y-81869903D01*
X135101612Y-81823446D01*
X135076479Y-81664766D01*
X135012298Y-81467238D01*
X134918007Y-81282181D01*
X134795928Y-81114154D01*
X134649066Y-80967292D01*
X134481039Y-80845213D01*
X134295982Y-80750922D01*
X134098454Y-80686741D01*
X134098452Y-80686740D01*
X134098450Y-80686740D01*
X133955221Y-80664054D01*
X133893317Y-80654250D01*
X133685623Y-80654250D01*
X133638069Y-80661781D01*
X133480489Y-80686740D01*
X133282952Y-80750924D01*
X133132637Y-80827513D01*
X133063968Y-80840409D01*
X133012200Y-80823148D01*
X127114154Y-77258077D01*
X127103257Y-77248991D01*
X127061506Y-77226254D01*
X127020844Y-77201676D01*
X127016337Y-77200044D01*
X126999261Y-77192356D01*
X126995053Y-77190065D01*
X126995045Y-77190061D01*
X126952358Y-77176748D01*
X126947070Y-77174967D01*
X126904996Y-77159736D01*
X126904986Y-77159733D01*
X126900246Y-77159012D01*
X126900246Y-77159011D01*
X126890957Y-77157597D01*
X126877425Y-77153378D01*
X126830190Y-77148352D01*
X126827411Y-77147930D01*
X126783179Y-77141200D01*
X126778391Y-77141418D01*
X126778390Y-77141417D01*
X126768999Y-77141843D01*
X126754905Y-77140344D01*
X126707596Y-77144630D01*
X126704786Y-77144758D01*
X126704778Y-77144759D01*
X126660094Y-77146788D01*
X126660082Y-77146790D01*
X126655428Y-77147937D01*
X126646315Y-77150183D01*
X126632194Y-77151464D01*
X126586619Y-77164900D01*
X126583908Y-77165569D01*
X126540469Y-77176279D01*
X126540454Y-77176284D01*
X126536121Y-77178314D01*
X126536120Y-77178313D01*
X126527605Y-77182301D01*
X126514011Y-77186310D01*
X126471953Y-77208369D01*
X126469402Y-77209565D01*
X126469386Y-77209574D01*
X126428883Y-77228546D01*
X126428876Y-77228550D01*
X126425015Y-77231391D01*
X126409137Y-77241316D01*
X125523529Y-77705837D01*
X125519601Y-77709010D01*
X125499773Y-77722097D01*
X123036403Y-79027992D01*
X123035922Y-79028246D01*
X118580409Y-81365251D01*
X118577333Y-81366810D01*
X118531378Y-81389307D01*
X118531372Y-81389311D01*
X118433409Y-81464026D01*
X118433403Y-81464031D01*
X118351899Y-81556423D01*
X118351895Y-81556428D01*
X118289980Y-81662948D01*
X118289978Y-81662951D01*
X118013330Y-82470163D01*
X118013330Y-82470165D01*
X117996889Y-82592272D01*
X117996889Y-82592274D01*
X117996889Y-82592276D01*
X118004588Y-82715249D01*
X118004588Y-82715252D01*
X118004589Y-82715253D01*
X118029084Y-82807751D01*
X118027217Y-82877596D01*
X118009536Y-82912377D01*
X117965780Y-82972604D01*
X117869274Y-83162007D01*
X117803583Y-83364182D01*
X117770330Y-83574135D01*
X117770330Y-83786708D01*
X117796115Y-83949512D01*
X117803584Y-83996665D01*
X117869240Y-84198733D01*
X117869274Y-84198836D01*
X117965781Y-84388242D01*
X118090720Y-84560208D01*
X118241043Y-84710531D01*
X118413009Y-84835470D01*
X118413011Y-84835471D01*
X118413014Y-84835473D01*
X118602418Y-84931979D01*
X118804587Y-84997668D01*
X119014543Y-85030922D01*
X119014544Y-85030922D01*
X119041826Y-85030922D01*
X119108865Y-85050607D01*
X119154620Y-85103411D01*
X119164564Y-85172569D01*
X119148206Y-85217895D01*
X119148215Y-85217900D01*
X119148182Y-85217964D01*
X119147549Y-85219719D01*
X119146002Y-85222242D01*
X119108394Y-85296051D01*
X119961253Y-85562062D01*
X119900527Y-85622789D01*
X119834701Y-85736803D01*
X119800626Y-85863970D01*
X119800626Y-85995622D01*
X119812351Y-86039379D01*
X118958616Y-85773094D01*
X118950626Y-85823543D01*
X118950626Y-86036042D01*
X118983868Y-86245923D01*
X118983868Y-86245926D01*
X119049530Y-86448013D01*
X119146005Y-86637353D01*
X119270898Y-86809255D01*
X119270902Y-86809260D01*
X119421161Y-86959519D01*
X119421166Y-86959523D01*
X119593067Y-87084416D01*
X119666881Y-87122026D01*
X119932892Y-86269168D01*
X119993619Y-86329895D01*
X120107633Y-86395721D01*
X120234800Y-86429796D01*
X120366452Y-86429796D01*
X120410207Y-86418071D01*
X120143923Y-87271803D01*
X120194380Y-87279796D01*
X120406872Y-87279796D01*
X120616753Y-87246553D01*
X120616759Y-87246552D01*
X120687806Y-87223467D01*
X120757647Y-87221470D01*
X120817481Y-87257550D01*
X120848310Y-87320251D01*
X120850126Y-87341397D01*
X120850126Y-87913922D01*
X120841481Y-87943362D01*
X120834958Y-87973349D01*
X120831203Y-87978364D01*
X120830441Y-87980961D01*
X120813807Y-88001603D01*
X120777229Y-88038181D01*
X120715906Y-88071666D01*
X120689548Y-88074500D01*
X120449361Y-88074500D01*
X120382322Y-88054815D01*
X120361679Y-88038180D01*
X120324038Y-88000538D01*
X120324034Y-88000535D01*
X120176553Y-87901990D01*
X120176540Y-87901983D01*
X120012667Y-87834106D01*
X120012658Y-87834103D01*
X119838694Y-87799500D01*
X119838691Y-87799500D01*
X119661309Y-87799500D01*
X119661306Y-87799500D01*
X119487341Y-87834103D01*
X119487332Y-87834106D01*
X119323459Y-87901983D01*
X119323446Y-87901990D01*
X119175965Y-88000535D01*
X119175961Y-88000538D01*
X119050538Y-88125961D01*
X119050535Y-88125965D01*
X118951990Y-88273446D01*
X118951983Y-88273459D01*
X118884106Y-88437332D01*
X118884103Y-88437341D01*
X118849500Y-88611304D01*
X118849500Y-88788695D01*
X118884103Y-88962658D01*
X118884106Y-88962667D01*
X118951983Y-89126540D01*
X118951990Y-89126553D01*
X119050535Y-89274034D01*
X119050538Y-89274038D01*
X119175961Y-89399461D01*
X119175965Y-89399464D01*
X119323446Y-89498009D01*
X119323459Y-89498016D01*
X119446363Y-89548923D01*
X119487334Y-89565894D01*
X119487336Y-89565894D01*
X119487341Y-89565896D01*
X119661304Y-89600499D01*
X119661307Y-89600500D01*
X119661309Y-89600500D01*
X119838693Y-89600500D01*
X119838694Y-89600499D01*
X119896682Y-89588964D01*
X120012658Y-89565896D01*
X120012661Y-89565894D01*
X120012666Y-89565894D01*
X120176547Y-89498013D01*
X120324035Y-89399464D01*
X120361679Y-89361820D01*
X120423001Y-89328334D01*
X120449361Y-89325500D01*
X121061607Y-89325500D01*
X121122029Y-89313481D01*
X121182452Y-89301463D01*
X121215792Y-89287652D01*
X121296286Y-89254312D01*
X121347509Y-89220084D01*
X121398733Y-89185858D01*
X121485858Y-89098733D01*
X121485859Y-89098731D01*
X121492925Y-89091665D01*
X121492928Y-89091661D01*
X121874355Y-88710234D01*
X121874359Y-88710232D01*
X121961484Y-88623107D01*
X122029937Y-88520660D01*
X122029938Y-88520659D01*
X122029939Y-88520656D01*
X122029941Y-88520653D01*
X122040298Y-88495646D01*
X122077089Y-88406825D01*
X122101126Y-88285980D01*
X122101126Y-88162767D01*
X122101126Y-86191424D01*
X122106173Y-86174233D01*
X122106200Y-86156316D01*
X122115813Y-86141405D01*
X122120811Y-86124385D01*
X122134350Y-86112652D01*
X122144060Y-86097593D01*
X122160208Y-86090246D01*
X122173615Y-86078630D01*
X122191349Y-86076079D01*
X122207658Y-86068661D01*
X122241116Y-86068924D01*
X122242773Y-86068686D01*
X122242952Y-86068712D01*
X122243687Y-86068818D01*
X122443713Y-86100500D01*
X122461781Y-86100500D01*
X122470648Y-86101788D01*
X122494593Y-86112765D01*
X122519861Y-86120185D01*
X122525847Y-86127093D01*
X122534161Y-86130905D01*
X122548371Y-86153087D01*
X122565616Y-86172989D01*
X122567927Y-86183615D01*
X122571850Y-86189738D01*
X122571832Y-86201565D01*
X122576822Y-86224500D01*
X122576822Y-90014995D01*
X122557137Y-90082034D01*
X122504333Y-90127789D01*
X122488827Y-90133653D01*
X122487331Y-90134106D01*
X122323459Y-90201983D01*
X122323446Y-90201990D01*
X122175965Y-90300535D01*
X122175961Y-90300538D01*
X122050538Y-90425961D01*
X122050535Y-90425965D01*
X121951990Y-90573446D01*
X121951983Y-90573459D01*
X121884106Y-90737332D01*
X121884103Y-90737341D01*
X121849500Y-90911304D01*
X121849500Y-90964547D01*
X121829815Y-91031586D01*
X121813181Y-91052228D01*
X121079258Y-91786150D01*
X121079251Y-91786157D01*
X121076270Y-91789139D01*
X121076267Y-91789142D01*
X120989142Y-91876267D01*
X120955935Y-91925965D01*
X120951511Y-91932584D01*
X120951507Y-91932590D01*
X120920690Y-91978710D01*
X120920685Y-91978719D01*
X120906013Y-92014143D01*
X120881447Y-92073449D01*
X120881448Y-92073450D01*
X120873538Y-92092546D01*
X120873535Y-92092556D01*
X120858491Y-92168190D01*
X120849500Y-92213389D01*
X120849500Y-92475500D01*
X120829815Y-92542539D01*
X120777011Y-92588294D01*
X120725500Y-92599500D01*
X120661306Y-92599500D01*
X120487341Y-92634103D01*
X120487332Y-92634106D01*
X120323459Y-92701983D01*
X120323446Y-92701990D01*
X120175965Y-92800535D01*
X120175961Y-92800538D01*
X120050538Y-92925961D01*
X120050535Y-92925965D01*
X119951990Y-93073446D01*
X119951983Y-93073459D01*
X119884106Y-93237332D01*
X119884103Y-93237341D01*
X119849500Y-93411304D01*
X119849500Y-93411309D01*
X119849500Y-93588691D01*
X119849500Y-93588693D01*
X119849499Y-93588693D01*
X119871901Y-93701308D01*
X119865674Y-93770900D01*
X119822811Y-93826077D01*
X119756922Y-93849322D01*
X119750284Y-93849500D01*
X119661306Y-93849500D01*
X119487341Y-93884103D01*
X119487332Y-93884106D01*
X119323459Y-93951983D01*
X119323446Y-93951990D01*
X119175965Y-94050535D01*
X119175961Y-94050538D01*
X119050538Y-94175961D01*
X119050535Y-94175965D01*
X118951990Y-94323446D01*
X118951983Y-94323459D01*
X118884106Y-94487332D01*
X118884103Y-94487341D01*
X118849500Y-94661304D01*
X118849500Y-94838695D01*
X118884103Y-95012658D01*
X118884106Y-95012667D01*
X118951983Y-95176540D01*
X118951990Y-95176553D01*
X119050535Y-95324034D01*
X119050538Y-95324038D01*
X119088180Y-95361679D01*
X119121666Y-95423001D01*
X119124500Y-95449361D01*
X119124500Y-99450500D01*
X119104815Y-99517539D01*
X119052011Y-99563294D01*
X119000500Y-99574500D01*
X104354870Y-99574500D01*
X104287831Y-99554815D01*
X104242076Y-99502011D01*
X104230873Y-99451362D01*
X104203582Y-95525362D01*
X104222800Y-95458187D01*
X104275285Y-95412066D01*
X104327579Y-95400500D01*
X104568995Y-95400500D01*
X104660041Y-95382389D01*
X104704328Y-95373580D01*
X104728376Y-95363618D01*
X104731927Y-95362809D01*
X104741726Y-95358089D01*
X104831811Y-95320775D01*
X104864332Y-95299044D01*
X104873601Y-95294582D01*
X104886979Y-95283913D01*
X104946543Y-95244114D01*
X104984570Y-95206086D01*
X104996541Y-95196541D01*
X105006084Y-95184572D01*
X105044114Y-95146543D01*
X105083913Y-95086979D01*
X105094582Y-95073601D01*
X105099044Y-95064332D01*
X105120775Y-95031811D01*
X105158089Y-94941726D01*
X105162809Y-94931927D01*
X105163618Y-94928376D01*
X105173580Y-94904328D01*
X105186636Y-94838691D01*
X105200500Y-94768995D01*
X105200500Y-94631004D01*
X105173581Y-94495678D01*
X105173580Y-94495674D01*
X105173580Y-94495672D01*
X105163619Y-94471624D01*
X105162809Y-94468073D01*
X105158084Y-94458263D01*
X105120775Y-94368189D01*
X105099046Y-94335669D01*
X105094582Y-94326399D01*
X105083913Y-94313022D01*
X105044114Y-94253457D01*
X105044112Y-94253454D01*
X105044110Y-94253452D01*
X105011017Y-94220360D01*
X105006089Y-94215432D01*
X104996541Y-94203459D01*
X104984567Y-94193910D01*
X104979639Y-94188982D01*
X104946546Y-94155888D01*
X104946543Y-94155885D01*
X104891323Y-94118989D01*
X104891323Y-94118988D01*
X104886971Y-94116080D01*
X104873601Y-94105418D01*
X104864333Y-94100954D01*
X104857094Y-94096118D01*
X104857091Y-94096116D01*
X104831811Y-94079225D01*
X104831807Y-94079223D01*
X104831805Y-94079222D01*
X104831806Y-94079222D01*
X104744957Y-94043249D01*
X104744952Y-94043247D01*
X104741733Y-94041913D01*
X104731927Y-94037191D01*
X104728380Y-94036381D01*
X104718736Y-94032386D01*
X104718727Y-94032384D01*
X104714873Y-94030788D01*
X104704328Y-94026420D01*
X104704324Y-94026419D01*
X104568995Y-93999500D01*
X104568993Y-93999500D01*
X104500207Y-93999500D01*
X100259757Y-93999500D01*
X100240359Y-93997973D01*
X100192298Y-93990361D01*
X100155400Y-93978372D01*
X100120843Y-93960764D01*
X100089458Y-93937961D01*
X100062037Y-93910540D01*
X100039234Y-93879155D01*
X100021626Y-93844598D01*
X100009639Y-93807704D01*
X100002026Y-93759634D01*
X100000500Y-93740239D01*
X100000500Y-91345165D01*
X100000973Y-91334349D01*
X100007250Y-91262666D01*
X100013877Y-91186986D01*
X100016109Y-91172052D01*
X100023044Y-91139427D01*
X100024539Y-91133200D01*
X100057991Y-91008378D01*
X100065376Y-90988089D01*
X100129849Y-90849834D01*
X100140643Y-90831137D01*
X100228135Y-90706181D01*
X100242024Y-90689629D01*
X100276941Y-90654708D01*
X100333870Y-90597774D01*
X100338490Y-90593387D01*
X100362568Y-90571702D01*
X100374378Y-90562308D01*
X100493754Y-90478706D01*
X100507258Y-90470481D01*
X129606879Y-75207150D01*
X129650369Y-75184479D01*
X129650802Y-75184393D01*
X129655278Y-75182056D01*
X129790612Y-75118949D01*
X129804652Y-75113418D01*
X129831652Y-75104645D01*
X129837736Y-75102843D01*
X129965968Y-75068484D01*
X129987236Y-75064734D01*
X130139199Y-75051439D01*
X130160801Y-75051439D01*
X130312759Y-75064733D01*
G37*
G04 #@! TD.AperFunction*
G04 #@! TA.AperFunction,Conductor*
G36*
X120617829Y-83638870D02*
G01*
X120620713Y-83638641D01*
X120637832Y-83645438D01*
X120653880Y-83650708D01*
X120660227Y-83654107D01*
X120662387Y-83655677D01*
X120678167Y-83663717D01*
X120679253Y-83664299D01*
X120703299Y-83687962D01*
X120727792Y-83711093D01*
X120728150Y-83712416D01*
X120729054Y-83713306D01*
X120732418Y-83728195D01*
X120744703Y-83773606D01*
X120744703Y-85293509D01*
X120744875Y-85294374D01*
X120744844Y-85294949D01*
X120745300Y-85299576D01*
X120744595Y-85299645D01*
X120741634Y-85355491D01*
X120668357Y-85590421D01*
X120607633Y-85529697D01*
X120493619Y-85463871D01*
X120366452Y-85429796D01*
X120234800Y-85429796D01*
X120191041Y-85441521D01*
X120457327Y-84587787D01*
X120457326Y-84587786D01*
X120406878Y-84579796D01*
X120379912Y-84579796D01*
X120312873Y-84560111D01*
X120267118Y-84507307D01*
X120257174Y-84438149D01*
X120274186Y-84391004D01*
X120275878Y-84388242D01*
X120275881Y-84388238D01*
X120372387Y-84198834D01*
X120438076Y-83996665D01*
X120471330Y-83786709D01*
X120471330Y-83760015D01*
X120472473Y-83756121D01*
X120471579Y-83752164D01*
X120482234Y-83722877D01*
X120491015Y-83692976D01*
X120494081Y-83690319D01*
X120495469Y-83686505D01*
X120520273Y-83667623D01*
X120543819Y-83647221D01*
X120547834Y-83646643D01*
X120551064Y-83644185D01*
X120582133Y-83641711D01*
X120612977Y-83637277D01*
X120617829Y-83638870D01*
G37*
G04 #@! TD.AperFunction*
G04 #@! TA.AperFunction,Conductor*
G36*
X145255895Y-97426180D02*
G01*
X143026107Y-97415889D01*
X142949268Y-97265086D01*
X142819538Y-97086528D01*
X142663472Y-96930462D01*
X142484913Y-96800731D01*
X142476189Y-96796286D01*
X142288258Y-96700529D01*
X142288255Y-96700528D01*
X142078350Y-96632327D01*
X141969352Y-96615063D01*
X141860356Y-96597800D01*
X141639644Y-96597800D01*
X141566979Y-96609309D01*
X141421649Y-96632327D01*
X141211744Y-96700528D01*
X141211741Y-96700529D01*
X141015086Y-96800731D01*
X140913212Y-96874747D01*
X140836528Y-96930462D01*
X140836526Y-96930464D01*
X140836525Y-96930464D01*
X140680464Y-97086525D01*
X140680464Y-97086526D01*
X140680462Y-97086528D01*
X140652147Y-97125500D01*
X140550731Y-97265086D01*
X140479879Y-97404138D01*
X139104989Y-97397793D01*
X139094917Y-94374059D01*
X145241533Y-94353587D01*
X145255895Y-97426180D01*
G37*
G04 #@! TD.AperFunction*
G04 #@! TA.AperFunction,Conductor*
G36*
X141580465Y-101932826D02*
G01*
X141639644Y-101942200D01*
X141639645Y-101942200D01*
X141860355Y-101942200D01*
X141860356Y-101942200D01*
X141909078Y-101934483D01*
X147031186Y-101960301D01*
X147001082Y-108166214D01*
X141885784Y-108141827D01*
X141867146Y-108138875D01*
X141860356Y-108137800D01*
X141639644Y-108137800D01*
X141636758Y-108138257D01*
X141622150Y-108140570D01*
X140236717Y-108133966D01*
X140268016Y-101926212D01*
X141580465Y-101932826D01*
G37*
G04 #@! TD.AperFunction*
M02*
