M48
; DRILL file KiCad 10.0.1 date 2026-06-13T16:48:43
; FORMAT={-:-/ absolute / metric / decimal}
; #@! TF.CreationDate,2026-06-13T16:48:43+01:00
; #@! TF.GenerationSoftware,Kicad,Pcbnew,10.0.1
; #@! TF.FileFunction,Plated,1,2,PTH
FMAT,2
METRIC
; #@! TA.AperFunction,Plated,PTH,ViaDrill
T1C0.400
; #@! TA.AperFunction,Plated,PTH,ComponentDrill
T2C0.400
; #@! TA.AperFunction,Plated,PTH,ComponentDrill
T3C1.000
; #@! TA.AperFunction,Plated,PTH,ComponentDrill
T4C1.092
; #@! TA.AperFunction,Plated,PTH,ComponentDrill
T5C1.295
; #@! TA.AperFunction,Plated,PTH,ComponentDrill
T6C2.200
%
G90
G05
T1
X106.25Y-94.25
X106.25Y-105.5
X111.0Y-93.75
X111.0Y-104.6
X111.0Y-106.0
X112.35Y-95.45
X114.6Y-96.3
X116.0Y-107.3
X116.0Y-109.15
X116.0Y-110.85
X116.0Y-113.0
X117.85Y-89.25
X117.85Y-91.4
X117.85Y-93.45
X118.752Y-100.995
X119.0Y-107.3
X119.0Y-109.15
X119.0Y-110.85
X119.0Y-113.0
X119.1Y-102.55
X119.75Y-88.7
X119.75Y-94.75
X119.75Y-101.05
X120.325Y-113.875
X120.75Y-93.5
X122.0Y-97.753
X122.005Y-101.345
X122.35Y-109.15
X122.35Y-114.55
X122.75Y-91.0
X123.0Y-97.753
X124.0Y-97.753
X124.5Y-86.85
X124.5Y-88.6
X124.5Y-90.35
X127.2Y-119.2
X127.475Y-111.85
X128.0Y-94.785
X128.0Y-96.05
X128.04Y-93.595
X128.4Y-113.6
X128.8Y-88.7
X128.8Y-90.35
X129.1Y-82.25
X129.15Y-115.05
X130.1Y-112.55
X130.7Y-101.36
X130.7Y-102.7
X130.7Y-104.0
X130.7Y-105.25
X131.25Y-107.05
X131.55Y-109.35
X132.5Y-111.5
X134.05Y-84.07
X134.05Y-86.35
X137.0Y-97.225
X138.155Y-87.2
X138.155Y-90.35
X138.25Y-92.5
X140.4Y-113.95
X140.4Y-115.95
X143.5Y-95.0
X143.5Y-96.5
X143.5Y-102.5
X143.5Y-104.0
X143.5Y-105.75
X143.5Y-107.5
X144.9Y-95.0
X144.9Y-96.5
X144.9Y-102.5
X144.9Y-104.0
X144.9Y-105.75
X144.9Y-107.5
T2
X110.85Y-87.5
X110.85Y-112.5
X111.333Y-86.333
X111.333Y-88.667
X111.333Y-111.333
X111.333Y-113.667
X112.5Y-85.85
X112.5Y-89.15
X112.5Y-110.85
X112.5Y-114.15
X113.667Y-86.333
X113.667Y-88.667
X113.667Y-111.333
X113.667Y-113.667
X114.15Y-87.5
X114.15Y-112.5
T3
X119.121Y-83.68
X120.301Y-85.93
X121.37Y-82.501
X122.55Y-84.75
X123.62Y-81.321
X124.799Y-83.57
X133.225Y-103.25
X135.765Y-103.25
T4
X133.75Y-118.0
X133.789Y-81.974
X138.171Y-115.447
X138.211Y-84.526
T5
X141.75Y-95.46
X141.75Y-98.0
X141.75Y-100.54
X141.75Y-103.08
X141.75Y-107.0
X141.75Y-109.54
T6
X112.5Y-87.5
X112.5Y-112.5
M30
